<svg xmlns="http://www.w3.org/2000/svg" viewBox="215 219 850 584" fill="none">
<path d="M922.338 782.91H846.864L770.851 496.525L766.032 474.578L761.751 495.99L685.738 782.91H608.656L477.545 445.316H528.309C550.379 445.317 570 459.363 577.12 480.252L645.056 679.597L649.337 709.04L655.226 679.597L724.815 399.1H808.855L877.376 679.062L882.73 709.04L887.01 680.132L945.516 448.279C953.608 416.215 982.45 393.746 1015.52 393.746H1044.82L922.338 782.91Z" fill="#D12027"/>
<path d="M554.917 409.537H502.538C480.018 409.537 460.101 394.926 453.343 373.445L448.419 357.786L443.313 334.164L437.568 359.062L383.298 524.42L375.636 537.188L385.215 535.911H433.735C446.078 535.911 456.399 539.423 464.699 546.446C473.211 553.468 480.021 562.086 485.128 572.3C490.448 582.515 494.6 592.305 497.579 601.668H359.036L325.199 703.181H235.181L401.815 239.036H491.193L554.917 409.537Z" fill="#D12027"/>
</svg>
