<svg viewBox="205 205 870 862" fill="none" xmlns="http://www.w3.org/2000/svg">
<path d="M352.512 936.6H356.597L393.108 1023.98H382.34L370.706 996.628H338.403L327.016 1023.98H316.248L352.512 936.6ZM356.225 960.982L355.235 957.765L354.493 954.918L353.626 957.641L352.636 960.982L342.239 987.469H366.746L356.225 960.982Z" fill="#FEFEFE"/>
<path d="M526.86 1025.09C520.177 1025.09 514.319 1023.61 509.285 1020.64C504.252 1017.59 500.374 1013.42 497.651 1008.14C494.928 1002.86 493.567 996.958 493.567 990.439V938.952H503.716V990.439C503.716 995.555 504.706 1000.05 506.686 1003.93C508.667 1007.81 511.389 1010.82 514.855 1012.97C518.403 1015.03 522.487 1016.06 527.108 1016.06C534.204 1016.06 539.856 1013.71 544.064 1009C548.355 1004.3 550.5 998.113 550.5 990.439V938.952H560.649V990.439C560.649 997.288 559.205 1003.35 556.317 1008.63C553.429 1013.83 549.428 1017.87 544.312 1020.76C539.196 1023.65 533.379 1025.09 526.86 1025.09Z" fill="#FEFEFE"/>
<path d="M689.623 948.358H661.527V938.952H727.867V948.358H699.772V1023.98H689.623V948.358Z" fill="#FEFEFE"/>
<path d="M864.42 1026.58C856.251 1026.5 848.907 1024.6 842.389 1020.89C835.953 1017.09 830.878 1011.98 827.165 1005.54C823.535 999.021 821.72 991.677 821.72 983.508V979.919C821.72 972.08 823.576 964.902 827.289 958.383C831.085 951.782 836.2 946.584 842.636 942.789C849.155 938.91 856.251 936.971 863.925 936.971C871.681 936.971 878.777 938.91 885.213 942.789C891.649 946.584 896.765 951.782 900.56 958.383C904.356 964.902 906.253 972.08 906.253 979.919V983.508C906.253 991.677 904.397 999.062 900.684 1005.66C897.053 1012.26 892.061 1017.42 885.708 1021.13C879.354 1024.85 872.258 1026.66 864.42 1026.58ZM864.048 1017.17C870.072 1017.17 875.518 1015.73 880.386 1012.84C885.254 1009.87 889.091 1005.83 891.896 1000.71C894.702 995.596 896.104 989.862 896.104 983.508V979.919C896.104 973.896 894.66 968.326 891.773 963.21C888.885 958.012 884.965 953.928 880.015 950.957C875.146 947.904 869.742 946.378 863.801 946.378C857.942 946.378 852.579 947.904 847.711 950.957C842.843 953.928 838.965 958.012 836.077 963.21C833.271 968.326 831.869 973.896 831.869 979.919V983.508C831.869 989.862 833.271 995.596 836.077 1000.71C838.882 1005.83 842.719 1009.87 847.587 1012.84C852.538 1015.73 858.025 1017.17 864.048 1017.17Z" fill="#FEFEFE"/>
<path d="M922.338 782.91H846.864L770.851 496.525L766.032 474.578L761.751 495.99L685.738 782.91H608.656L477.545 445.316H528.309C550.379 445.317 570 459.363 577.12 480.252L645.056 679.597L649.337 709.04L655.226 679.597L724.815 399.1H808.855L877.376 679.062L882.73 709.04L887.01 680.132L945.516 448.279C953.608 416.215 982.45 393.746 1015.52 393.746H1044.82L922.338 782.91Z" fill="#D12027"/>
<path d="M554.917 409.537H502.538C480.018 409.537 460.101 394.926 453.343 373.445L448.419 357.786L443.313 334.164L437.568 359.062L383.298 524.42L375.636 537.188L385.215 535.911H433.735C446.078 535.911 456.399 539.423 464.699 546.446C473.211 553.468 480.021 562.086 485.128 572.3C490.448 582.515 494.6 592.305 497.579 601.668H359.036L325.199 703.181H235.181L401.815 239.036H491.193L554.917 409.537Z" fill="#D12027"/>
</svg>
